<?xml version="1.0" encoding="UTF-8"?>
<svg id="Camada_1" xmlns="http://www.w3.org/2000/svg" version="1.1" viewBox="0 0 500 52.7">
  <!-- Generator: Adobe Illustrator 30.1.0, SVG Export Plug-In . SVG Version: 2.1.1 Build 136)  -->
  <defs>
    <style>
      .st0 {
        fill: #bba1e8;
      }
    </style>
  </defs>
  <path class="st0" d="M110.69,41.03c-1.24.65-2.54,1.16-3.89,1.53s-2.71.62-4.06.76-2.61.2-3.77.2c-1.3,0-2.55-.15-3.77-.46s-2.31-.83-3.26-1.59-1.73-1.77-2.33-3.06-.94-2.92-1.02-4.9h27.94c0-3.16-.5-5.85-1.5-8.05s-2.38-3.98-4.13-5.33c-1.75-1.35-3.83-2.34-6.22-2.95s-4.97-.92-7.74-.92c-1.73,0-3.52.1-5.36.31s-3.63.57-5.36,1.09-3.37,1.2-4.9,2.06-2.88,1.93-4.03,3.22-2.07,2.82-2.75,4.59-1.02,3.82-1.02,6.15c0,2.63.54,4.97,1.62,7.02s2.61,3.77,4.6,5.18,4.39,2.46,7.21,3.19,5.96,1.09,9.45,1.09c1.24,0,2.54-.07,3.89-.21s2.71-.37,4.06-.67,2.67-.7,3.96-1.19,2.48-1.08,3.59-1.77,2.09-1.5,2.95-2.42c.86-.92,1.53-1.95,2-3.12l-2.92-2.29c-.92,1.05-1.99,1.9-3.23,2.55ZM91.33,23.47c1.28-1.32,3-1.97,5.18-1.97,1.03,0,1.93.13,2.7.39s1.42.68,1.93,1.27.9,1.37,1.16,2.33.39,2.15.39,3.56h-13.87c.4-2.4,1.24-4.26,2.52-5.58Z"/>
  <path class="st0" d="M167.43,42.26v-24.88l-17.96.73c-1.19.05-1.73,1.52-.86,2.33l5.17,4.78v6.83c0,1.66-.18,3.14-.54,4.43s-.86,2.39-1.5,3.27-1.41,1.56-2.3,2.02-1.88.69-2.95.69-1.98-.24-2.75-.71-1.39-1.12-1.87-1.94-.84-1.77-1.07-2.86-.34-2.24-.34-3.46v-16.1l-18.1.73c-1.2.05-1.74,1.53-.84,2.34l5.3,4.77v8.87c0,5.32,1.2,9.33,3.59,12.03s5.81,4.05,10.25,4.05c2.84,0,5.38-.6,7.62-1.8s4.08-2.93,5.51-5.18v6.35l17.72-.72c1.22-.05,1.75-1.57.82-2.36l-4.89-4.18Z"/>
  <path class="st0" d="M214.87,30.52c-1.6-.81-3.45-1.44-5.53-1.89s-4.27-.79-6.53-1.02c-2.31-.23-4.17-.45-5.59-.67s-2.52-.45-3.29-.69-1.29-.49-1.54-.76-.39-.57-.39-.92.15-.67.44-.97.71-.57,1.26-.8,1.19-.41,1.93-.54,1.57-.2,2.49-.2c1.37,0,2.85.12,4.45.36s3.22.6,4.89,1.07,3.35,1.07,5.03,1.79c1.23.52,2.44,1.1,3.62,1.74.58.32,1.29-.09,1.29-.75v-8.55c0-.62-.63-1.04-1.2-.8l-6.29,2.59c-2.29-1.05-4.6-1.85-6.93-2.42s-4.69-.84-7.08-.84c-2.21,0-4.31.24-6.29.73s-3.72,1.2-5.22,2.14-2.68,2.11-3.56,3.5-1.32,3-1.32,4.83c0,1.41.25,2.64.74,3.69s1.17,1.95,2.02,2.7,1.85,1.39,3,1.9,2.39.93,3.72,1.26,2.7.58,4.13.76,2.85.33,4.26.44c2.1.17,3.8.36,5.1.57s2.32.45,3.05.71,1.22.56,1.47.87.39.67.39,1.07c0,.48-.17.88-.5,1.22s-.77.6-1.32.8-1.16.35-1.86.44-1.4.14-2.1.14c-1.87,0-3.74-.17-5.61-.51s-3.7-.82-5.49-1.42-3.52-1.31-5.19-2.12c-1.17-.57-2.29-1.17-3.35-1.81-.58-.35-1.32.05-1.32.73v9.51c0,.63.65,1.05,1.22.79l6.27-2.8c2.33,1.22,4.72,2.14,7.18,2.77,2.46.63,4.95.94,7.46.94,1.28,0,2.59-.1,3.95-.29s2.67-.49,3.96-.89,2.5-.91,3.65-1.53,2.14-1.36,3-2.22c.86-.86,1.54-1.85,2.04-2.97s.76-2.38.76-3.77c0-1.93-.48-3.53-1.43-4.82s-2.23-2.34-3.83-3.15Z"/>
  <path class="st0" d="M297.24,16.84c-.85-1.47-1.93-2.78-3.25-3.93s-2.88-2.09-4.69-2.82c-2.04-.82-4.4-1.4-7.09-1.74s-5.71-.51-9.07-.51c-.86,0-2.03,0-3.52.01s-3.16.02-5,.03c-1.27,0-2.61.01-3.99.02l-3.02,31.23-2.23-31.2c-.95,0-1.92.01-2.87.02-2.05.02-4.02.03-5.91.04-.9,0-1.76.01-2.57.02-.84,0-1.21,1.06-.56,1.59l6.96,5.7v26.48l-6.98,5.7c-.65.53-.28,1.58.55,1.59.99.01,2.02.02,3.1.03,2.01.02,4.06.03,6.13.04s4.12.02,6.12.04c2,.02,3.85.03,5.53.04s3.16.01,4.4.01h2.7c4.16,0,7.94-.49,11.34-1.47s6.32-2.42,8.75-4.3,4.31-4.2,5.63-6.95,1.99-5.88,1.99-9.41c0-1.91-.2-3.73-.6-5.46-.4-1.73-1.02-3.34-1.87-4.8ZM282.87,33.75c-.4,1.92-1.08,3.57-2.03,4.95s-2.22,2.45-3.8,3.22-3.56,1.14-5.92,1.14h-5.61l2.44-29.05h3.74c1.85,0,3.5.3,4.96.89s2.69,1.46,3.7,2.6c1.01,1.14,1.78,2.55,2.32,4.2s.8,3.56.8,5.69c0,2.33-.2,4.45-.6,6.36Z"/>
  <path class="st0" d="M342.33,41.03c-1.24.65-2.54,1.16-3.89,1.53s-2.71.62-4.06.76-2.61.2-3.77.2c-1.3,0-2.55-.15-3.77-.46s-2.31-.83-3.26-1.59-1.73-1.77-2.33-3.06-.94-2.92-1.02-4.9h27.94c0-3.16-.5-5.85-1.5-8.05s-2.38-3.98-4.13-5.33-3.83-2.34-6.22-2.95-4.97-.92-7.74-.92c-1.73,0-3.52.1-5.36.31s-3.63.57-5.36,1.09-3.37,1.2-4.9,2.06-2.88,1.93-4.03,3.22-2.07,2.82-2.75,4.59-1.02,3.82-1.02,6.15c0,2.63.54,4.97,1.62,7.02s2.61,3.77,4.6,5.18,4.39,2.46,7.21,3.19,5.96,1.09,9.45,1.09c1.24,0,2.54-.07,3.89-.21s2.71-.37,4.06-.67,2.67-.7,3.96-1.19,2.48-1.08,3.59-1.77,2.09-1.5,2.95-2.42,1.53-1.95,2-3.12l-2.92-2.29c-.92,1.05-1.99,1.9-3.23,2.55ZM322.97,23.47c1.28-1.32,3-1.97,5.18-1.97,1.03,0,1.93.13,2.7.39s1.42.68,1.93,1.27.9,1.37,1.16,2.33.39,2.15.39,3.56h-13.87c.4-2.4,1.24-4.26,2.52-5.58Z"/>
  <path class="st0" d="M391.57,40.83c-1.18.71-2.43,1.26-3.73,1.66s-2.63.67-3.98.82-2.62.21-3.82.21c-1.41,0-2.77-.22-4.09-.66s-2.48-1.1-3.5-1.99-1.84-1.99-2.46-3.3-.93-2.85-.93-4.6c0-2.08.3-3.81.9-5.19s1.38-2.49,2.34-3.32,2.05-1.42,3.26-1.76,2.43-.51,3.65-.51c1.33,0,2.56.21,3.69.64,1.12.43,2.13,1.02,3.02,1.79s1.64,1.67,2.27,2.72,1.12,2.18,1.49,3.4l7.15-.86v-12.07c0-.78-.85-1.27-1.53-.88l-4.45,2.58c-1.51-.92-3.41-1.68-5.71-2.3s-5.01-.93-8.14-.93-6.29.36-9.09,1.09-5.23,1.79-7.29,3.2-3.67,3.16-4.85,5.23-1.76,4.47-1.76,7.18.54,5.25,1.62,7.39,2.65,3.94,4.7,5.39,4.58,2.55,7.55,3.29,6.37,1.12,10.18,1.12c2.42,0,4.69-.24,6.82-.71s4.03-1.14,5.72-2,3.13-1.89,4.32-3.09,2.07-2.53,2.65-3.98l-2.92-2.29c-.88,1.12-1.91,2.04-3.09,2.75Z"/>
  <path class="st0" d="M449.17,44.92l-13.98-15.3,13.88-10.63c.68-.52.31-1.61-.55-1.61h-17.92c-.74,0-1.16.85-.72,1.44l3.69,4.91-10.72,8.26V3.74l-18.56.76c-.82.03-1.17,1.05-.55,1.58l5.76,4.92v31.06l-6.01,5.41c-.61.55-.22,1.56.6,1.56h21.64c.74,0,1.16-.85.71-1.44l-3.58-4.68v-3.83l2.83-2.17,6.78,7.95-1.96,2.76c-.42.59,0,1.42.73,1.42h20.59c.85,0,1.23-1.08.55-1.6l-3.21-2.51Z"/>
  <path class="st0" d="M497.01,33.67c-.95-1.29-2.23-2.34-3.83-3.15-1.6-.81-3.45-1.44-5.53-1.89s-4.27-.79-6.53-1.02c-2.31-.23-4.17-.45-5.59-.67s-2.52-.45-3.29-.69-1.29-.49-1.54-.76-.39-.57-.39-.92.15-.67.44-.97.71-.57,1.26-.8,1.19-.41,1.93-.54,1.57-.2,2.49-.2c1.37,0,2.85.12,4.45.36s3.22.6,4.89,1.07,3.35,1.07,5.03,1.79c1.3.55,2.57,1.17,3.8,1.85.5.27,1.1-.07,1.1-.64v-8.95c0-.53-.54-.89-1.03-.69l-6.47,2.67c-2.29-1.05-4.6-1.85-6.93-2.42s-4.69-.84-7.08-.84c-2.21,0-4.31.24-6.29.73s-3.72,1.2-5.22,2.14-2.68,2.11-3.56,3.5-1.32,3-1.32,4.83c0,1.41.25,2.64.74,3.69s1.17,1.95,2.02,2.7,1.85,1.39,3,1.9,2.39.93,3.72,1.26,2.7.58,4.13.76,2.85.33,4.26.44c2.1.17,3.8.36,5.1.57s2.32.45,3.05.71,1.22.56,1.47.87.39.67.39,1.07c0,.48-.17.88-.5,1.22s-.77.6-1.32.8-1.16.35-1.86.44-1.4.14-2.1.14c-1.87,0-3.74-.17-5.61-.51-1.87-.34-3.7-.82-5.49-1.42-1.79-.6-3.52-1.31-5.19-2.12-1.24-.6-2.42-1.25-3.55-1.93-.5-.3-1.13.04-1.13.63v9.93c0,.54.55.9,1.05.68l6.45-2.88c2.33,1.22,4.72,2.14,7.18,2.77s4.95.94,7.46.94c1.28,0,2.59-.1,3.95-.29s2.67-.49,3.96-.89,2.5-.91,3.65-1.53,2.14-1.36,3-2.22,1.54-1.85,2.04-2.97.76-2.38.76-3.77c0-1.93-.48-3.53-1.43-4.82Z"/>
  <path class="st0" d="M68.25,9.57c.65-.5.29-1.54-.53-1.54h-19.49l-12.9,22.08-13.11-22.08h-6.32l15.42,25.74L11.05,8.03H2.42c-.77,0-1.16.94-.6,1.48l7,6.81v25.48l-5.94,5.75c-.56.54-.17,1.48.6,1.48h19.36c.8,0,1.17-1,.55-1.52l-6.8-5.71v-14.58l13.76,21.82h4.15l12.3-22.05v14.78l-6.35,5.76c-.58.53-.21,1.5.58,1.5h26.3c.8,0,1.17-.99.57-1.51l-6.59-5.75V15.01l6.95-5.44Z"/>
</svg>